# xmcd
#
# Track frame offsets:
#	150
#	12322
#	22022
#	37784
#	50417
#	62822
#	71915
#	83496
#	93491
#	106087
#	115834
#	135248
#	147199
#	174095
#	182962
#
# Disc length: 2575 seconds
#
# Revision: 4
# Processed by: cddbd v1.5.1PL0 Copyright (c) Steve Scherf et al.
# Submitted via: EasyCDDAExtractor 7.0.6.1
#
DISCID=bd0a0d0f
DTITLE=Various Artist - High Society - Genre
DYEAR=2005
DGENRE=Blues
TTITLE0=Frank Pourcel - Love Theme From The Godfather
TTITLE1=Nat King Cole - More
TTITLE2=Helen Sharpiro - Beyond The Sea (La Mer) 
TTITLE3=Matt Monro - Love Is A Many Splendoured Thing
TTITLE4=Wayne Newton - Strangers In The Night
TTITLE5=Julie London - Diamonds Are A Girls Best Friends
TTITLE6=Matt Monro - Speak Softly Love
TTITLE7=Mel Torme  - Midnight Swinger
TTITLE8=Al Martino - Spanish Eyes
TTITLE9=King Curtis - Melancholy Serenade
TTITLE10=Louis Prima - Angelina Zooma Zooma (Medley) 
TTITLE11=Louis Armstrong And Duke Ellington Orchestra - Do Nothing Till You He
TTITLE11=ar From Me
TTITLE12=Sam Butera - The Boulevard Of Broken Dreams - Fever
TTITLE13=Dean Martin - You're Nobody Till Somebody Loves You
TTITLE14=The Out-Islanders - Ebb Tide
EXTD=
EXTT0=
EXTT1=
EXTT2=
EXTT3=
EXTT4=
EXTT5=
EXTT6=
EXTT7=
EXTT8=
EXTT9=
EXTT10=
EXTT11=
EXTT12=
EXTT13=
EXTT14=
PLAYORDER=
